<svg xmlns="http://www.w3.org/2000/svg" xmlns:xlink="http://www.w3.org/1999/xlink" width="500" zoomAndPan="magnify" viewBox="0 0 375 374.999991" height="500" preserveAspectRatio="xMidYMid meet" version="1.0"><defs><g/></defs><g fill="#887bb0" fill-opacity="1"><g transform="translate(47.414111, 208.09761)"><g><path d="M 15.015625 -26.078125 C 13.742188 -26.078125 12.773438 -25.78125 12.109375 -25.1875 C 11.441406 -24.601562 11.109375 -23.875 11.109375 -23 C 11.109375 -22.476562 11.21875 -21.988281 11.4375 -21.53125 C 11.65625 -21.070312 12.113281 -20.660156 12.8125 -20.296875 C 13.507812 -19.929688 14.566406 -19.609375 15.984375 -19.328125 C 18.523438 -18.847656 20.613281 -18.269531 22.25 -17.59375 C 23.882812 -16.914062 25.160156 -16.144531 26.078125 -15.28125 C 26.992188 -14.414062 27.632812 -13.453125 28 -12.390625 C 28.363281 -11.335938 28.546875 -10.191406 28.546875 -8.953125 C 28.546875 -5.953125 27.488281 -3.578125 25.375 -1.828125 C 23.269531 -0.0859375 20.175781 0.78125 16.09375 0.78125 C 14.6875 0.78125 13.539062 0.664062 12.65625 0.4375 C 11.78125 0.207031 11.070312 -0.0195312 10.53125 -0.25 C 10 -0.476562 9.515625 -0.59375 9.078125 -0.59375 C 8.617188 -0.59375 8.242188 -0.476562 7.953125 -0.25 C 7.671875 -0.0195312 7.394531 0.210938 7.125 0.453125 C 6.851562 0.691406 6.488281 0.8125 6.03125 0.8125 C 5.59375 0.8125 5.269531 0.6875 5.0625 0.4375 C 4.851562 0.1875 4.648438 -0.253906 4.453125 -0.890625 L 2.65625 -6.515625 C 2.125 -8.265625 2.375 -9.335938 3.40625 -9.734375 C 3.957031 -9.953125 4.4375 -9.960938 4.84375 -9.765625 C 5.257812 -9.566406 5.65625 -9.179688 6.03125 -8.609375 C 7.382812 -6.453125 8.851562 -4.890625 10.4375 -3.921875 C 12.019531 -2.960938 13.6875 -2.484375 15.4375 -2.484375 C 16.96875 -2.484375 18.113281 -2.785156 18.875 -3.390625 C 19.632812 -3.992188 20.015625 -4.785156 20.015625 -5.765625 C 20.015625 -6.378906 19.851562 -6.921875 19.53125 -7.390625 C 19.21875 -7.859375 18.613281 -8.285156 17.71875 -8.671875 C 16.820312 -9.066406 15.484375 -9.441406 13.703125 -9.796875 C 10.984375 -10.335938 8.8125 -11.066406 7.1875 -11.984375 C 5.5625 -12.910156 4.398438 -14.039062 3.703125 -15.375 C 3.003906 -16.707031 2.65625 -18.273438 2.65625 -20.078125 C 2.65625 -21.941406 3.144531 -23.566406 4.125 -24.953125 C 5.113281 -26.335938 6.484375 -27.414062 8.234375 -28.1875 C 9.992188 -28.96875 12 -29.359375 14.25 -29.359375 C 15.34375 -29.359375 16.257812 -29.28125 17 -29.125 C 17.75 -28.976562 18.390625 -28.8125 18.921875 -28.625 C 19.453125 -28.4375 19.910156 -28.265625 20.296875 -28.109375 C 20.679688 -27.960938 21.0625 -27.890625 21.4375 -27.890625 C 21.9375 -27.890625 22.347656 -28.015625 22.671875 -28.265625 C 23.003906 -28.515625 23.328125 -28.757812 23.640625 -29 C 23.953125 -29.238281 24.316406 -29.359375 24.734375 -29.359375 C 25.109375 -29.359375 25.421875 -29.222656 25.671875 -28.953125 C 25.921875 -28.679688 26.101562 -28.226562 26.21875 -27.59375 L 27.421875 -22.1875 C 27.578125 -21.3125 27.597656 -20.644531 27.484375 -20.1875 C 27.378906 -19.726562 27.066406 -19.390625 26.546875 -19.171875 C 26.035156 -18.953125 25.566406 -18.960938 25.140625 -19.203125 C 24.722656 -19.441406 24.296875 -19.878906 23.859375 -20.515625 C 22.546875 -22.566406 21.125 -24.003906 19.59375 -24.828125 C 18.0625 -25.660156 16.535156 -26.078125 15.015625 -26.078125 Z M 15.015625 -26.078125 "/></g></g></g><g fill="#887bb0" fill-opacity="1"><g transform="translate(76.173947, 208.09761)"><g><path d="M 2.125 -6.296875 C 2.125 -8.054688 2.648438 -9.578125 3.703125 -10.859375 C 4.753906 -12.140625 6.28125 -13.132812 8.28125 -13.84375 C 10.289062 -14.550781 12.695312 -14.90625 15.5 -14.90625 C 16.28125 -14.90625 17 -14.867188 17.65625 -14.796875 C 18.3125 -14.722656 18.914062 -14.617188 19.46875 -14.484375 L 19.46875 -23.234375 C 19.46875 -24.304688 19.179688 -25.148438 18.609375 -25.765625 C 18.046875 -26.390625 17.269531 -26.703125 16.28125 -26.703125 C 15.425781 -26.703125 14.742188 -26.515625 14.234375 -26.140625 C 13.722656 -25.773438 13.46875 -25.304688 13.46875 -24.734375 L 13.46875 -21.765625 C 13.46875 -20.335938 12.976562 -19.226562 12 -18.4375 C 11.03125 -17.65625 9.660156 -17.265625 7.890625 -17.265625 C 6.335938 -17.265625 5.179688 -17.601562 4.421875 -18.28125 C 3.660156 -18.957031 3.28125 -19.894531 3.28125 -21.09375 C 3.28125 -22.039062 3.59375 -23.003906 4.21875 -23.984375 C 4.851562 -24.960938 5.789062 -25.851562 7.03125 -26.65625 C 8.28125 -27.457031 9.835938 -28.101562 11.703125 -28.59375 C 13.578125 -29.082031 15.75 -29.328125 18.21875 -29.328125 C 22.15625 -29.328125 25.082031 -28.570312 27 -27.0625 C 28.925781 -25.550781 29.890625 -23.488281 29.890625 -20.875 L 29.890625 -5.96875 C 29.890625 -5.507812 29.992188 -5.144531 30.203125 -4.875 C 30.421875 -4.613281 30.738281 -4.484375 31.15625 -4.484375 C 31.550781 -4.484375 31.847656 -4.578125 32.046875 -4.765625 C 32.242188 -4.953125 32.429688 -5.144531 32.609375 -5.34375 C 32.734375 -5.488281 32.859375 -5.609375 32.984375 -5.703125 C 33.117188 -5.804688 33.285156 -5.859375 33.484375 -5.859375 C 33.773438 -5.859375 33.988281 -5.75 34.125 -5.53125 C 34.269531 -5.3125 34.34375 -5.03125 34.34375 -4.6875 C 34.34375 -4.113281 34.179688 -3.503906 33.859375 -2.859375 C 33.546875 -2.222656 33.082031 -1.628906 32.46875 -1.078125 C 31.851562 -0.535156 31.082031 -0.09375 30.15625 0.25 C 29.226562 0.601562 28.15625 0.78125 26.9375 0.78125 C 25.25 0.78125 23.820312 0.460938 22.65625 -0.171875 C 21.488281 -0.816406 20.738281 -1.675781 20.40625 -2.75 C 19.300781 -1.613281 17.929688 -0.738281 16.296875 -0.125 C 14.671875 0.476562 12.960938 0.78125 11.171875 0.78125 C 9.378906 0.78125 7.800781 0.476562 6.4375 -0.125 C 5.070312 -0.738281 4.007812 -1.578125 3.25 -2.640625 C 2.5 -3.703125 2.125 -4.921875 2.125 -6.296875 Z M 12.8125 -8.125 C 12.8125 -6.726562 13.148438 -5.671875 13.828125 -4.953125 C 14.503906 -4.234375 15.378906 -3.875 16.453125 -3.875 C 16.992188 -3.875 17.519531 -3.957031 18.03125 -4.125 C 18.550781 -4.300781 19.03125 -4.53125 19.46875 -4.8125 L 19.46875 -11.984375 C 19.09375 -12.117188 18.707031 -12.21875 18.3125 -12.28125 C 17.914062 -12.351562 17.488281 -12.390625 17.03125 -12.390625 C 15.707031 -12.390625 14.671875 -12.015625 13.921875 -11.265625 C 13.179688 -10.523438 12.8125 -9.476562 12.8125 -8.125 Z M 12.8125 -8.125 "/></g></g></g><g fill="#887bb0" fill-opacity="1"><g transform="translate(109.174643, 208.09761)"><g><path d="M 15.65625 -42.4375 L 15.65625 -5.578125 C 15.65625 -4.847656 15.726562 -4.328125 15.875 -4.015625 C 16.019531 -3.703125 16.265625 -3.488281 16.609375 -3.375 L 17.46875 -3.078125 C 18.289062 -2.734375 18.703125 -2.210938 18.703125 -1.515625 C 18.703125 -0.503906 18.039062 0 16.71875 0 L 4.03125 0 C 3.351562 0 2.851562 -0.132812 2.53125 -0.40625 C 2.21875 -0.675781 2.0625 -1.046875 2.0625 -1.515625 C 2.0625 -2.210938 2.457031 -2.734375 3.25 -3.078125 L 4.1875 -3.375 C 4.519531 -3.507812 4.753906 -3.726562 4.890625 -4.03125 C 5.035156 -4.332031 5.109375 -4.84375 5.109375 -5.5625 L 5.109375 -36.5625 C 5.109375 -37.132812 5.023438 -37.546875 4.859375 -37.796875 C 4.703125 -38.046875 4.445312 -38.210938 4.09375 -38.296875 L 2.984375 -38.4375 C 2.242188 -38.632812 1.875 -39.082031 1.875 -39.78125 C 1.875 -40.175781 1.988281 -40.5 2.21875 -40.75 C 2.445312 -41 2.875 -41.242188 3.5 -41.484375 L 9.5625 -43.78125 C 10.5 -44.144531 11.238281 -44.394531 11.78125 -44.53125 C 12.332031 -44.664062 12.804688 -44.734375 13.203125 -44.734375 C 14.015625 -44.734375 14.625 -44.519531 15.03125 -44.09375 C 15.445312 -43.664062 15.65625 -43.113281 15.65625 -42.4375 Z M 15.65625 -42.4375 "/></g></g></g><g fill="#887bb0" fill-opacity="1"><g transform="translate(127.481687, 208.09761)"><g><path d="M 4.421875 -8.546875 L 4.421875 -21.09375 C 4.421875 -21.664062 4.335938 -22.078125 4.171875 -22.328125 C 4.015625 -22.578125 3.757812 -22.738281 3.40625 -22.8125 L 2.296875 -22.96875 C 1.554688 -23.164062 1.1875 -23.613281 1.1875 -24.3125 C 1.1875 -24.707031 1.300781 -25.03125 1.53125 -25.28125 C 1.757812 -25.53125 2.1875 -25.773438 2.8125 -26.015625 L 8.875 -28.3125 C 9.8125 -28.675781 10.550781 -28.925781 11.09375 -29.0625 C 11.644531 -29.195312 12.117188 -29.265625 12.515625 -29.265625 C 13.328125 -29.265625 13.9375 -29.050781 14.34375 -28.625 C 14.757812 -28.195312 14.96875 -27.644531 14.96875 -26.96875 L 14.96875 -10.03125 C 14.96875 -8.519531 15.320312 -7.390625 16.03125 -6.640625 C 16.75 -5.898438 17.726562 -5.53125 18.96875 -5.53125 C 19.664062 -5.53125 20.410156 -5.671875 21.203125 -5.953125 C 22.003906 -6.242188 22.769531 -6.675781 23.5 -7.25 L 23.5 -21.09375 C 23.5 -21.664062 23.421875 -22.078125 23.265625 -22.328125 C 23.109375 -22.578125 22.859375 -22.738281 22.515625 -22.8125 L 21.390625 -22.96875 C 20.648438 -23.164062 20.28125 -23.613281 20.28125 -24.3125 C 20.28125 -24.707031 20.394531 -25.03125 20.625 -25.28125 C 20.851562 -25.53125 21.285156 -25.773438 21.921875 -26.015625 L 27.953125 -28.3125 C 28.847656 -28.65625 29.570312 -28.898438 30.125 -29.046875 C 30.6875 -29.191406 31.21875 -29.265625 31.71875 -29.265625 C 32.476562 -29.265625 33.054688 -29.050781 33.453125 -28.625 C 33.847656 -28.195312 34.046875 -27.644531 34.046875 -26.96875 L 34.046875 -5.578125 C 34.046875 -4.847656 34.125 -4.328125 34.28125 -4.015625 C 34.445312 -3.703125 34.6875 -3.488281 35 -3.375 L 35.875 -3.078125 C 36.6875 -2.734375 37.09375 -2.210938 37.09375 -1.515625 C 37.09375 -1.046875 36.9375 -0.675781 36.625 -0.40625 C 36.320312 -0.132812 35.820312 0 35.125 0 L 28.5 0 C 27.738281 0 27.03125 -0.191406 26.375 -0.578125 C 25.71875 -0.972656 25.175781 -1.507812 24.75 -2.1875 C 24.320312 -2.863281 24.046875 -3.617188 23.921875 -4.453125 C 21.691406 -2.515625 19.710938 -1.15625 17.984375 -0.375 C 16.265625 0.394531 14.648438 0.78125 13.140625 0.78125 C 11.410156 0.78125 9.882812 0.394531 8.5625 -0.375 C 7.25 -1.15625 6.226562 -2.242188 5.5 -3.640625 C 4.78125 -5.035156 4.421875 -6.671875 4.421875 -8.546875 Z M 4.421875 -8.546875 "/></g></g></g><g fill="#887bb0" fill-opacity="1"><g transform="translate(164.693362, 208.09761)"><g><path d="M 3.3125 -25.140625 L 2.1875 -25.53125 C 1.289062 -25.851562 0.84375 -26.363281 0.84375 -27.0625 C 0.84375 -27.5625 1.003906 -27.929688 1.328125 -28.171875 C 1.660156 -28.421875 2.101562 -28.546875 2.65625 -28.546875 L 4.390625 -28.546875 C 4.804688 -28.546875 5.175781 -28.640625 5.5 -28.828125 C 5.832031 -29.023438 6.21875 -29.367188 6.65625 -29.859375 L 10.6875 -34.609375 C 11.726562 -35.765625 12.707031 -36.34375 13.625 -36.34375 C 14.113281 -36.34375 14.5 -36.179688 14.78125 -35.859375 C 15.0625 -35.546875 15.203125 -35.082031 15.203125 -34.46875 L 15.203125 -28.546875 L 21.765625 -28.546875 C 22.304688 -28.546875 22.734375 -28.429688 23.046875 -28.203125 C 23.367188 -27.972656 23.53125 -27.640625 23.53125 -27.203125 C 23.53125 -26.566406 23.210938 -26.03125 22.578125 -25.59375 C 21.941406 -25.15625 20.914062 -24.9375 19.5 -24.9375 L 15.203125 -24.9375 L 15.203125 -9.703125 C 15.203125 -8.273438 15.457031 -7.191406 15.96875 -6.453125 C 16.488281 -5.710938 17.238281 -5.34375 18.21875 -5.34375 C 18.8125 -5.34375 19.289062 -5.453125 19.65625 -5.671875 C 20.03125 -5.890625 20.335938 -6.164062 20.578125 -6.5 C 20.816406 -6.84375 21.035156 -7.175781 21.234375 -7.5 C 21.429688 -7.832031 21.640625 -8.109375 21.859375 -8.328125 C 22.078125 -8.546875 22.359375 -8.65625 22.703125 -8.65625 C 23.035156 -8.65625 23.304688 -8.535156 23.515625 -8.296875 C 23.722656 -8.054688 23.828125 -7.648438 23.828125 -7.078125 C 23.828125 -6.023438 23.578125 -5.023438 23.078125 -4.078125 C 22.585938 -3.128906 21.894531 -2.296875 21 -1.578125 C 20.101562 -0.859375 19.046875 -0.296875 17.828125 0.109375 C 16.617188 0.515625 15.296875 0.71875 13.859375 0.71875 C 10.953125 0.71875 8.691406 0.0078125 7.078125 -1.40625 C 5.460938 -2.820312 4.65625 -4.972656 4.65625 -7.859375 L 4.65625 -23.265625 C 4.65625 -23.828125 4.550781 -24.234375 4.34375 -24.484375 C 4.132812 -24.742188 3.789062 -24.960938 3.3125 -25.140625 Z M 3.3125 -25.140625 "/></g></g></g><g fill="#887bb0" fill-opacity="1"><g transform="translate(187.778828, 208.09761)"><g/></g></g><g fill="#887bb0" fill-opacity="1"><g transform="translate(198.649444, 208.09761)"><g><path d="M 15.015625 -26.078125 C 13.742188 -26.078125 12.773438 -25.78125 12.109375 -25.1875 C 11.441406 -24.601562 11.109375 -23.875 11.109375 -23 C 11.109375 -22.476562 11.21875 -21.988281 11.4375 -21.53125 C 11.65625 -21.070312 12.113281 -20.660156 12.8125 -20.296875 C 13.507812 -19.929688 14.566406 -19.609375 15.984375 -19.328125 C 18.523438 -18.847656 20.613281 -18.269531 22.25 -17.59375 C 23.882812 -16.914062 25.160156 -16.144531 26.078125 -15.28125 C 26.992188 -14.414062 27.632812 -13.453125 28 -12.390625 C 28.363281 -11.335938 28.546875 -10.191406 28.546875 -8.953125 C 28.546875 -5.953125 27.488281 -3.578125 25.375 -1.828125 C 23.269531 -0.0859375 20.175781 0.78125 16.09375 0.78125 C 14.6875 0.78125 13.539062 0.664062 12.65625 0.4375 C 11.78125 0.207031 11.070312 -0.0195312 10.53125 -0.25 C 10 -0.476562 9.515625 -0.59375 9.078125 -0.59375 C 8.617188 -0.59375 8.242188 -0.476562 7.953125 -0.25 C 7.671875 -0.0195312 7.394531 0.210938 7.125 0.453125 C 6.851562 0.691406 6.488281 0.8125 6.03125 0.8125 C 5.59375 0.8125 5.269531 0.6875 5.0625 0.4375 C 4.851562 0.1875 4.648438 -0.253906 4.453125 -0.890625 L 2.65625 -6.515625 C 2.125 -8.265625 2.375 -9.335938 3.40625 -9.734375 C 3.957031 -9.953125 4.4375 -9.960938 4.84375 -9.765625 C 5.257812 -9.566406 5.65625 -9.179688 6.03125 -8.609375 C 7.382812 -6.453125 8.851562 -4.890625 10.4375 -3.921875 C 12.019531 -2.960938 13.6875 -2.484375 15.4375 -2.484375 C 16.96875 -2.484375 18.113281 -2.785156 18.875 -3.390625 C 19.632812 -3.992188 20.015625 -4.785156 20.015625 -5.765625 C 20.015625 -6.378906 19.851562 -6.921875 19.53125 -7.390625 C 19.21875 -7.859375 18.613281 -8.285156 17.71875 -8.671875 C 16.820312 -9.066406 15.484375 -9.441406 13.703125 -9.796875 C 10.984375 -10.335938 8.8125 -11.066406 7.1875 -11.984375 C 5.5625 -12.910156 4.398438 -14.039062 3.703125 -15.375 C 3.003906 -16.707031 2.65625 -18.273438 2.65625 -20.078125 C 2.65625 -21.941406 3.144531 -23.566406 4.125 -24.953125 C 5.113281 -26.335938 6.484375 -27.414062 8.234375 -28.1875 C 9.992188 -28.96875 12 -29.359375 14.25 -29.359375 C 15.34375 -29.359375 16.257812 -29.28125 17 -29.125 C 17.75 -28.976562 18.390625 -28.8125 18.921875 -28.625 C 19.453125 -28.4375 19.910156 -28.265625 20.296875 -28.109375 C 20.679688 -27.960938 21.0625 -27.890625 21.4375 -27.890625 C 21.9375 -27.890625 22.347656 -28.015625 22.671875 -28.265625 C 23.003906 -28.515625 23.328125 -28.757812 23.640625 -29 C 23.953125 -29.238281 24.316406 -29.359375 24.734375 -29.359375 C 25.109375 -29.359375 25.421875 -29.222656 25.671875 -28.953125 C 25.921875 -28.679688 26.101562 -28.226562 26.21875 -27.59375 L 27.421875 -22.1875 C 27.578125 -21.3125 27.597656 -20.644531 27.484375 -20.1875 C 27.378906 -19.726562 27.066406 -19.390625 26.546875 -19.171875 C 26.035156 -18.953125 25.566406 -18.960938 25.140625 -19.203125 C 24.722656 -19.441406 24.296875 -19.878906 23.859375 -20.515625 C 22.546875 -22.566406 21.125 -24.003906 19.59375 -24.828125 C 18.0625 -25.660156 16.535156 -26.078125 15.015625 -26.078125 Z M 15.015625 -26.078125 "/></g></g></g><g fill="#887bb0" fill-opacity="1"><g transform="translate(227.409281, 208.09761)"><g><path d="M 2.125 -6.296875 C 2.125 -8.054688 2.648438 -9.578125 3.703125 -10.859375 C 4.753906 -12.140625 6.28125 -13.132812 8.28125 -13.84375 C 10.289062 -14.550781 12.695312 -14.90625 15.5 -14.90625 C 16.28125 -14.90625 17 -14.867188 17.65625 -14.796875 C 18.3125 -14.722656 18.914062 -14.617188 19.46875 -14.484375 L 19.46875 -23.234375 C 19.46875 -24.304688 19.179688 -25.148438 18.609375 -25.765625 C 18.046875 -26.390625 17.269531 -26.703125 16.28125 -26.703125 C 15.425781 -26.703125 14.742188 -26.515625 14.234375 -26.140625 C 13.722656 -25.773438 13.46875 -25.304688 13.46875 -24.734375 L 13.46875 -21.765625 C 13.46875 -20.335938 12.976562 -19.226562 12 -18.4375 C 11.03125 -17.65625 9.660156 -17.265625 7.890625 -17.265625 C 6.335938 -17.265625 5.179688 -17.601562 4.421875 -18.28125 C 3.660156 -18.957031 3.28125 -19.894531 3.28125 -21.09375 C 3.28125 -22.039062 3.59375 -23.003906 4.21875 -23.984375 C 4.851562 -24.960938 5.789062 -25.851562 7.03125 -26.65625 C 8.28125 -27.457031 9.835938 -28.101562 11.703125 -28.59375 C 13.578125 -29.082031 15.75 -29.328125 18.21875 -29.328125 C 22.15625 -29.328125 25.082031 -28.570312 27 -27.0625 C 28.925781 -25.550781 29.890625 -23.488281 29.890625 -20.875 L 29.890625 -5.96875 C 29.890625 -5.507812 29.992188 -5.144531 30.203125 -4.875 C 30.421875 -4.613281 30.738281 -4.484375 31.15625 -4.484375 C 31.550781 -4.484375 31.847656 -4.578125 32.046875 -4.765625 C 32.242188 -4.953125 32.429688 -5.144531 32.609375 -5.34375 C 32.734375 -5.488281 32.859375 -5.609375 32.984375 -5.703125 C 33.117188 -5.804688 33.285156 -5.859375 33.484375 -5.859375 C 33.773438 -5.859375 33.988281 -5.75 34.125 -5.53125 C 34.269531 -5.3125 34.34375 -5.03125 34.34375 -4.6875 C 34.34375 -4.113281 34.179688 -3.503906 33.859375 -2.859375 C 33.546875 -2.222656 33.082031 -1.628906 32.46875 -1.078125 C 31.851562 -0.535156 31.082031 -0.09375 30.15625 0.25 C 29.226562 0.601562 28.15625 0.78125 26.9375 0.78125 C 25.25 0.78125 23.820312 0.460938 22.65625 -0.171875 C 21.488281 -0.816406 20.738281 -1.675781 20.40625 -2.75 C 19.300781 -1.613281 17.929688 -0.738281 16.296875 -0.125 C 14.671875 0.476562 12.960938 0.78125 11.171875 0.78125 C 9.378906 0.78125 7.800781 0.476562 6.4375 -0.125 C 5.070312 -0.738281 4.007812 -1.578125 3.25 -2.640625 C 2.5 -3.703125 2.125 -4.921875 2.125 -6.296875 Z M 12.8125 -8.125 C 12.8125 -6.726562 13.148438 -5.671875 13.828125 -4.953125 C 14.503906 -4.234375 15.378906 -3.875 16.453125 -3.875 C 16.992188 -3.875 17.519531 -3.957031 18.03125 -4.125 C 18.550781 -4.300781 19.03125 -4.53125 19.46875 -4.8125 L 19.46875 -11.984375 C 19.09375 -12.117188 18.707031 -12.21875 18.3125 -12.28125 C 17.914062 -12.351562 17.488281 -12.390625 17.03125 -12.390625 C 15.707031 -12.390625 14.671875 -12.015625 13.921875 -11.265625 C 13.179688 -10.523438 12.8125 -9.476562 12.8125 -8.125 Z M 12.8125 -8.125 "/></g></g></g><g fill="#887bb0" fill-opacity="1"><g transform="translate(260.409977, 208.09761)"><g><path d="M 15.65625 -42.4375 L 15.65625 -5.578125 C 15.65625 -4.847656 15.726562 -4.328125 15.875 -4.015625 C 16.019531 -3.703125 16.265625 -3.488281 16.609375 -3.375 L 17.46875 -3.078125 C 18.289062 -2.734375 18.703125 -2.210938 18.703125 -1.515625 C 18.703125 -0.503906 18.039062 0 16.71875 0 L 4.03125 0 C 3.351562 0 2.851562 -0.132812 2.53125 -0.40625 C 2.21875 -0.675781 2.0625 -1.046875 2.0625 -1.515625 C 2.0625 -2.210938 2.457031 -2.734375 3.25 -3.078125 L 4.1875 -3.375 C 4.519531 -3.507812 4.753906 -3.726562 4.890625 -4.03125 C 5.035156 -4.332031 5.109375 -4.84375 5.109375 -5.5625 L 5.109375 -36.5625 C 5.109375 -37.132812 5.023438 -37.546875 4.859375 -37.796875 C 4.703125 -38.046875 4.445312 -38.210938 4.09375 -38.296875 L 2.984375 -38.4375 C 2.242188 -38.632812 1.875 -39.082031 1.875 -39.78125 C 1.875 -40.175781 1.988281 -40.5 2.21875 -40.75 C 2.445312 -41 2.875 -41.242188 3.5 -41.484375 L 9.5625 -43.78125 C 10.5 -44.144531 11.238281 -44.394531 11.78125 -44.53125 C 12.332031 -44.664062 12.804688 -44.734375 13.203125 -44.734375 C 14.015625 -44.734375 14.625 -44.519531 15.03125 -44.09375 C 15.445312 -43.664062 15.65625 -43.113281 15.65625 -42.4375 Z M 15.65625 -42.4375 "/></g></g></g><g fill="#887bb0" fill-opacity="1"><g transform="translate(278.71702, 208.09761)"><g><path d="M 17.65625 -39.359375 C 18.3125 -40.878906 19.070312 -42.054688 19.9375 -42.890625 C 20.800781 -43.722656 21.910156 -44.050781 23.265625 -43.875 C 24.078125 -43.789062 24.753906 -43.535156 25.296875 -43.109375 C 25.835938 -42.679688 26.226562 -42.164062 26.46875 -41.5625 C 26.71875 -40.957031 26.796875 -40.332031 26.703125 -39.6875 C 26.554688 -38.632812 26.144531 -37.742188 25.46875 -37.015625 C 24.800781 -36.296875 23.816406 -35.585938 22.515625 -34.890625 L 17.234375 -31.515625 C 16.859375 -31.367188 16.472656 -31.296875 16.078125 -31.296875 C 15.691406 -31.296875 15.378906 -31.40625 15.140625 -31.625 C 14.859375 -31.90625 14.742188 -32.203125 14.796875 -32.515625 C 14.847656 -32.835938 14.972656 -33.171875 15.171875 -33.515625 Z M 30.9375 -17.953125 C 30.9375 -16.710938 30.59375 -15.753906 29.90625 -15.078125 C 29.21875 -14.398438 28.226562 -14.0625 26.9375 -14.0625 L 11.5 -14.0625 C 11.976562 -11.476562 13.023438 -9.550781 14.640625 -8.28125 C 16.265625 -7.019531 18.296875 -6.390625 20.734375 -6.390625 C 22.265625 -6.390625 23.628906 -6.640625 24.828125 -7.140625 C 26.035156 -7.640625 27.078125 -8.4375 27.953125 -9.53125 C 28.429688 -9.988281 28.800781 -10.296875 29.0625 -10.453125 C 29.320312 -10.609375 29.582031 -10.6875 29.84375 -10.6875 C 30.195312 -10.6875 30.453125 -10.515625 30.609375 -10.171875 C 30.773438 -9.835938 30.859375 -9.425781 30.859375 -8.9375 C 30.835938 -7.613281 30.488281 -6.367188 29.8125 -5.203125 C 29.132812 -4.046875 28.191406 -3.019531 26.984375 -2.125 C 25.773438 -1.226562 24.347656 -0.519531 22.703125 0 C 21.066406 0.519531 19.253906 0.78125 17.265625 0.78125 C 15.035156 0.78125 12.976562 0.441406 11.09375 -0.234375 C 9.207031 -0.910156 7.566406 -1.878906 6.171875 -3.140625 C 4.785156 -4.410156 3.707031 -5.925781 2.9375 -7.6875 C 2.175781 -9.445312 1.796875 -11.40625 1.796875 -13.5625 C 1.796875 -16.707031 2.421875 -19.460938 3.671875 -21.828125 C 4.929688 -24.203125 6.742188 -26.050781 9.109375 -27.375 C 11.472656 -28.695312 14.320312 -29.359375 17.65625 -29.359375 C 20.519531 -29.359375 22.941406 -28.867188 24.921875 -27.890625 C 26.898438 -26.921875 28.394531 -25.578125 29.40625 -23.859375 C 30.425781 -22.148438 30.9375 -20.179688 30.9375 -17.953125 Z M 11.203125 -17.40625 C 11.203125 -17.3125 11.203125 -17.207031 11.203125 -17.09375 C 11.203125 -16.988281 11.203125 -16.882812 11.203125 -16.78125 L 18.875 -16.78125 C 19.414062 -16.78125 19.8125 -16.894531 20.0625 -17.125 C 20.320312 -17.351562 20.453125 -17.726562 20.453125 -18.25 C 20.453125 -20.800781 20.066406 -22.679688 19.296875 -23.890625 C 18.535156 -25.109375 17.507812 -25.71875 16.21875 -25.71875 C 14.757812 -25.71875 13.554688 -25.007812 12.609375 -23.59375 C 11.671875 -22.175781 11.203125 -20.113281 11.203125 -17.40625 Z M 11.203125 -17.40625 "/></g></g></g><g fill="#887bb0" fill-opacity="1"><g transform="translate(309.657013, 208.09761)"><g><path d="M 8.9375 0.78125 C 7.78125 0.78125 6.734375 0.488281 5.796875 -0.09375 C 4.859375 -0.6875 4.113281 -1.460938 3.5625 -2.421875 C 3.019531 -3.390625 2.75 -4.441406 2.75 -5.578125 C 2.75 -6.753906 3.019531 -7.820312 3.5625 -8.78125 C 4.113281 -9.738281 4.859375 -10.5 5.796875 -11.0625 C 6.734375 -11.632812 7.78125 -11.921875 8.9375 -11.921875 C 10.101562 -11.921875 11.160156 -11.632812 12.109375 -11.0625 C 13.054688 -10.5 13.800781 -9.738281 14.34375 -8.78125 C 14.894531 -7.820312 15.171875 -6.753906 15.171875 -5.578125 C 15.171875 -4.441406 14.894531 -3.390625 14.34375 -2.421875 C 13.800781 -1.460938 13.054688 -0.6875 12.109375 -0.09375 C 11.160156 0.488281 10.101562 0.78125 8.9375 0.78125 Z M 8.9375 0.78125 "/></g></g></g></svg>